# xmcd CD database file
#
# Track frame offsets:
#	150
#	17620
#	32081
#	53842
#	71925
#	87723
#	111434
#	128570
#	144424
#	163008
#
# Disc length: 2354 seconds
#
# Revision: 0
# Processed by: cddbd v1.5.2PL0 Copyright (c) Steve Scherf et al.
# Submitted via: CDex 1.51
#
DISCID=8c09300a
DTITLE=Elsewhere Gate - The Invisible World
DYEAR=2006
DGENRE=New Age
TTITLE0=Beyond the Vale
TTITLE1=Secret Door
TTITLE2=Invisible World
TTITLE3=Overwhelmed
TTITLE4=Spirits From a Brighter Dawn
TTITLE5=One Tribe
TTITLE6=Flesh and Blood
TTITLE7=Solitude
TTITLE8=Longing For Home
TTITLE9=Elysium Dream
EXTD=YEAR: 2006
EXTT0=
EXTT1=
EXTT2=
EXTT3=
EXTT4=
EXTT5=
EXTT6=
EXTT7=
EXTT8=
EXTT9=
PLAYORDER=
